<svg width="100%" height="100%" viewBox="0 0 47 43" fill="none" xmlns="http://www.w3.org/2000/svg">
<path d="M14.1973 32.1111C12.0748 32.1111 10.3575 33.7111 10.3575 35.6667C10.3575 37.6222 12.0748 39.2222 14.1973 39.2222C16.3198 39.2222 18.0564 37.6222 18.0564 35.6667C18.0564 33.7111 16.3198 32.1111 14.1973 32.1111ZM2.61987 3.66666V7.22221H6.47901L13.4255 20.7155L10.8205 25.0711C10.5118 25.5689 10.3382 26.1555 10.3382 26.7778C10.3382 28.7333 12.0748 30.3333 14.1973 30.3333H37.3521V26.7778H15.0077C14.7376 26.7778 14.5253 26.5822 14.5253 26.3333L14.5832 26.12L16.3198 23.2222H30.6951C32.1423 23.2222 33.4158 22.4933 34.0719 21.3911L40.9797 9.85332C41.1341 9.60443 41.2113 9.30221 41.2113 8.99999C41.2113 8.02221 40.343 7.22221 39.2817 7.22221H10.7434L8.92957 3.66666H2.61987ZM33.493 32.1111C31.3705 32.1111 29.6532 33.7111 29.6532 35.6667C29.6532 37.6222 31.3705 39.2222 33.493 39.2222C35.6155 39.2222 37.3521 37.6222 37.3521 35.6667C37.3521 33.7111 35.6155 32.1111 33.493 32.1111Z" fill="#4B4B4B"/>
</svg>
