<svg width="100%" height="100%" viewBox="0 0 47 43" fill="none" xmlns="http://www.w3.org/2000/svg">
<path d="M29.9792 25H28.4549L27.9146 24.52C29.8056 22.4933 30.944 19.8622 30.944 17C30.944 10.6178 25.3289 5.44446 18.4018 5.44446C11.4746 5.44446 5.85953 10.6178 5.85953 17C5.85953 23.3822 11.4746 28.5556 18.4018 28.5556C21.5084 28.5556 24.3642 27.5067 26.5639 25.7645L27.0849 26.2622V27.6667L36.7327 36.5378L39.6078 33.8889L29.9792 25V25ZM18.4018 25C13.5971 25 9.71868 21.4267 9.71868 17C9.71868 12.5733 13.5971 9.00001 18.4018 9.00001C23.2064 9.00001 27.0849 12.5733 27.0849 17C27.0849 21.4267 23.2064 25 18.4018 25Z" fill="#4B4B4B"/>
</svg>
